<svg xmlns="http://www.w3.org/2000/svg" width="178" height="32" viewBox="0 0 178 32" role="img" aria-label="Visa Mastercard American Express Discover">
  <rect x="0.5" y="0.5" width="42" height="31" rx="5" fill="#ffffff" stroke="#d1d5db"/>
  <text x="8" y="21" font-family="Arial, Helvetica, sans-serif" font-size="13" font-weight="700" fill="#1a1f71">VISA</text>
  <rect x="45.5" y="0.5" width="42" height="31" rx="5" fill="#ffffff" stroke="#d1d5db"/>
  <circle cx="62" cy="16" r="8" fill="#eb001b"/>
  <circle cx="71" cy="16" r="8" fill="#f79e1b"/>
  <path d="M66.5 10.1a8 8 0 0 1 0 11.8 8 8 0 0 1 0-11.8z" fill="#ff5f00"/>
  <rect x="90.5" y="0.5" width="42" height="31" rx="5" fill="#2e77bb" stroke="#2e77bb"/>
  <text x="99" y="20" font-family="Arial, Helvetica, sans-serif" font-size="10" font-weight="700" fill="#ffffff">AMEX</text>
  <rect x="135.5" y="0.5" width="42" height="31" rx="5" fill="#ffffff" stroke="#d1d5db"/>
  <text x="141" y="20" font-family="Arial, Helvetica, sans-serif" font-size="9" font-weight="700" fill="#111827">DISC</text>
  <path d="M163 8a8 8 0 0 1 0 16 8 8 0 0 1 0-16z" fill="#f59e0b"/>
</svg>
